<svg id="Bell_Icon" data-name="Bell Icon" xmlns="http://www.w3.org/2000/svg" width="20" height="25" viewBox="0 0 20 25">
  <path id="Path_10" data-name="Path 10" d="M19.764,28.336a.813.813,0,0,0-.8.641,1.574,1.574,0,0,1-.314.685,1.187,1.187,0,0,1-1.011.371,1.207,1.207,0,0,1-1.011-.371,1.574,1.574,0,0,1-.314-.685.813.813,0,0,0-.8-.641h0a.819.819,0,0,0-.8,1,2.806,2.806,0,0,0,2.92,2.33,2.8,2.8,0,0,0,2.92-2.33.822.822,0,0,0-.8-1Z" transform="translate(-7.659 -6.665)" fill="#ccc"/>
  <path id="Path_11" data-name="Path 11" d="M26.524,22.424c-.964-1.267-2.859-2.01-2.859-7.683,0-5.823-2.578-8.164-4.98-8.726-.225-.056-.388-.131-.388-.368V5.466a1.533,1.533,0,0,0-1.5-1.535h-.038a1.533,1.533,0,0,0-1.5,1.535v.181c0,.231-.163.312-.388.368-2.409.568-4.98,2.9-4.98,8.726,0,5.673-1.9,6.41-2.859,7.683a1.239,1.239,0,0,0,.995,1.985H25.548A1.24,1.24,0,0,0,26.524,22.424Zm-2.44.362H9.493a.274.274,0,0,1-.206-.456A7.559,7.559,0,0,0,10.6,20.246a14.113,14.113,0,0,0,.895-5.5A9.554,9.554,0,0,1,12.8,9.323,4.015,4.015,0,0,1,15.224,7.6a2.194,2.194,0,0,0,1.164-.655.5.5,0,0,1,.745-.012,2.268,2.268,0,0,0,1.176.668A4.015,4.015,0,0,1,20.73,9.323a9.554,9.554,0,0,1,1.308,5.418,14.113,14.113,0,0,0,.895,5.5,7.645,7.645,0,0,0,1.345,2.116A.258.258,0,0,1,24.084,22.786Z" transform="translate(-6.775 -3.93)" fill="#ccc"/>
</svg>
