<svg id="Bell_Icon_Active" data-name="Bell Icon Active" xmlns="http://www.w3.org/2000/svg" width="20" height="25" viewBox="0 0 20 25">
  <path id="Path_12" data-name="Path 12" d="M17.618,31.65c1.945,0,3.008-1.376,3.008-3.314H14.6C14.6,30.274,15.667,31.65,17.618,31.65Z" transform="translate(-7.631 -6.65)" fill="#949494"/>
  <path id="Path_13" data-name="Path 13" d="M26.508,22.441c-.963-1.268-2.857-2.012-2.857-7.69,0-5.829-2.576-8.171-4.977-8.734-.225-.056-.388-.131-.388-.369V5.467a1.526,1.526,0,1,0-3.051,0v.181c0,.231-.163.312-.388.369-2.407.569-4.977,2.905-4.977,8.734,0,5.679-1.894,6.416-2.857,7.69a1.24,1.24,0,0,0,.994,1.987H25.52A1.24,1.24,0,0,0,26.508,22.441Z" transform="translate(-6.761 -3.93)" fill="#949494"/>
</svg>
