<svg id="People_Icon" data-name="People Icon" xmlns="http://www.w3.org/2000/svg" width="30" height="20" viewBox="0 0 30 20">
  <path id="Person_Center" data-name="Person Center" d="M23.234,23.136c-.724-.274-1.908-.288-2.432-.5a3.353,3.353,0,0,1-1.125-.555,7.794,7.794,0,0,1-.188-1.953,3.151,3.151,0,0,0,.64-.96,11.249,11.249,0,0,0,.31-1.885s.427.192.595-.713a6.315,6.315,0,0,0,.343-1.768c-.078-.576-.375-.439-.375-.439a5.394,5.394,0,0,0,.375-2.563A3.977,3.977,0,0,0,17.2,7.748,3.99,3.99,0,0,0,13.016,11.8a5.475,5.475,0,0,0,.369,2.563s-.3-.137-.375.439a5.881,5.881,0,0,0,.343,1.768c.168.912.595.713.595.713a11.358,11.358,0,0,0,.31,1.885,3.151,3.151,0,0,0,.64.96,7.8,7.8,0,0,1-.188,1.953,3.225,3.225,0,0,1-1.125.548c-.517.212-1.7.24-2.432.514a4.809,4.809,0,0,0-2.962,4.606h18A4.8,4.8,0,0,0,23.234,23.136Z" transform="translate(-2.215 -7.748)" fill="#db3737"/>
  <path id="Person_Left" data-name="Person Left" d="M9.844,19.769a4.923,4.923,0,0,0,2.348-.629c-1.09-1.589-.5-3.442-.724-5.173a2.928,2.928,0,0,0-3.284-2.759H8.156A2.936,2.936,0,0,0,4.9,13.967c-.225,1.724.4,3.787-.717,5.173a4.562,4.562,0,0,0,2.355.561h0s.07.974-.07,1.136a1.808,1.808,0,0,1-.844.372A16.824,16.824,0,0,0,3.8,21.7a2.844,2.844,0,0,0-1.589,2.516H7.861a4.971,4.971,0,0,1,2.25-2.015,4.884,4.884,0,0,1,1.737-.352s.267-.406-.612-.561a6.156,6.156,0,0,1-1.35-.453C9.752,20.682,9.844,19.769,9.844,19.769Z" transform="translate(-2.215 -7.748)" fill="#db3737"/>
  <path id="Person_Right" data-name="Person Right" d="M26.156,19.769a4.923,4.923,0,0,1-2.348-.629c1.09-1.589.5-3.442.724-5.173a2.928,2.928,0,0,1,3.284-2.759h.028A2.936,2.936,0,0,1,31.1,13.967c.225,1.724-.4,3.787.717,5.173a4.562,4.562,0,0,1-2.355.561h0s-.07.974.07,1.136a1.808,1.808,0,0,0,.844.372A16.825,16.825,0,0,1,32.2,21.7a2.844,2.844,0,0,1,1.589,2.516H28.139a4.971,4.971,0,0,0-2.25-2.015,4.884,4.884,0,0,0-1.737-.352s-.267-.406.612-.561a6.156,6.156,0,0,0,1.35-.453C26.248,20.682,26.156,19.769,26.156,19.769Z" transform="translate(-3.785 -7.748)" fill="#db3737"/>
</svg>
