<svg xmlns="http://www.w3.org/2000/svg" width="30" height="30" viewBox="0 0 30 30"><path d="M29.45,13.671,16.329.55a1.88,1.88,0,0,0-2.658,0L.55,13.671a1.88,1.88,0,0,0,0,2.658L13.671,29.45a1.879,1.879,0,0,0,2.658,0L29.45,16.329a1.88,1.88,0,0,0,0-2.658Zm-5.917.736L18.6,18.962a.469.469,0,0,1-.787-.345V15.469H12.187v3.75a.469.469,0,0,1-.469.469H9.843a.469.469,0,0,1-.469-.469V14.531a1.875,1.875,0,0,1,1.875-1.875h6.563V9.508a.469.469,0,0,1,.787-.345l4.934,4.554a.469.469,0,0,1,0,.689Z" fill="#137cbd"/></svg>