<svg xmlns="http://www.w3.org/2000/svg" width="26.263" height="28.509" viewBox="0 0 26.263 28.509"><path d="M28.223,24.9c-.2.007-.408.014-.612.014A12.4,12.4,0,0,1,18.7,21.164,12.809,12.809,0,0,1,15,12.108a12.971,12.971,0,0,1,1.23-5.534,18.327,18.327,0,0,1,.956-1.645.277.277,0,0,0-.274-.429A13.537,13.537,0,0,0,5.625,17.93,13.469,13.469,0,0,0,18.991,31.5,13.255,13.255,0,0,0,29.18,26.712a12.843,12.843,0,0,0,1.153-1.533.284.284,0,0,0-.288-.429A12.007,12.007,0,0,1,28.223,24.9Z" transform="translate(-4.875 -3.741)" fill="none" stroke="#666" stroke-width="1.5"/></svg>