<svg xmlns="http://www.w3.org/2000/svg" width="25.002" height="25" viewBox="0 0 25.002 25"><path d="M28.77,24.078a21,21,0,0,0-4.387-2.935c-1.315-.631-1.8-.618-2.727.052-.775.56-1.276,1.08-2.167.885s-2.649-1.523-4.354-3.222S12.1,15.4,11.913,14.5s.332-1.393.885-2.167c.67-.931.69-1.412.052-2.727A20.585,20.585,0,0,0,9.914,5.223c-.957-.957-1.172-.748-1.7-.56a9.667,9.667,0,0,0-1.556.827A4.693,4.693,0,0,0,4.792,7.462c-.371.8-.8,2.291,1.386,6.183a34.5,34.5,0,0,0,6.066,8.09h0l.007.007.007.007h0a34.636,34.636,0,0,0,8.09,6.066C24.24,30,25.73,29.571,26.531,29.2A4.613,4.613,0,0,0,28.5,27.332a9.666,9.666,0,0,0,.827-1.556C29.518,25.25,29.733,25.035,28.77,24.078Z" transform="translate(-4.49 -4.502)" fill="#137cbd"/></svg>