<svg xmlns="http://www.w3.org/2000/svg" width="31.505" height="31.505" viewBox="0 0 31.505 31.505"><g transform="translate(-156.25 -129.25)"><path d="M26.595,20.594a2.25,2.25,0,0,0,.45,2.482l.082.082a2.729,2.729,0,1,1-3.86,3.86l-.082-.082a2.269,2.269,0,0,0-3.846,1.609v.232a2.728,2.728,0,1,1-5.455,0v-.123a2.25,2.25,0,0,0-1.473-2.059,2.25,2.25,0,0,0-2.482.45l-.082.082a2.729,2.729,0,1,1-3.86-3.86l.082-.082A2.269,2.269,0,0,0,4.46,19.339H4.228a2.728,2.728,0,1,1,0-5.455H4.35A2.25,2.25,0,0,0,6.41,12.411a2.25,2.25,0,0,0-.45-2.482l-.082-.082a2.729,2.729,0,1,1,3.86-3.86l.082.082a2.25,2.25,0,0,0,2.482.45h.109A2.25,2.25,0,0,0,13.775,4.46V4.228a2.728,2.728,0,1,1,5.455,0V4.35A2.269,2.269,0,0,0,23.076,5.96l.082-.082a2.729,2.729,0,1,1,3.86,3.86l-.082.082a2.25,2.25,0,0,0-.45,2.482v.109a2.25,2.25,0,0,0,2.059,1.364h.232a2.728,2.728,0,1,1,0,5.455h-.123a2.25,2.25,0,0,0-2.059,1.364Z" transform="translate(155.5 128.5)" fill="none" stroke="#bbb" stroke-linecap="round" stroke-linejoin="round" stroke-width="1.5"/><path d="M21.683,17.592A4.092,4.092,0,1,1,17.592,13.5,4.092,4.092,0,0,1,21.683,17.592Z" transform="translate(154.411 127.411)" fill="none" stroke="#bbb" stroke-linecap="round" stroke-linejoin="round" stroke-width="1.5"/></g></svg>