<svg xmlns="http://www.w3.org/2000/svg" width="26.032" height="25.023" viewBox="0 0 26.032 25.023">
  <g id="Star_Icon" data-name="Star Icon" transform="translate(0.516 0.5)">
    <path id="Star" d="M12.6.834,9.549,7.039l-6.827,1A1.5,1.5,0,0,0,1.895,10.6l4.939,4.828L5.666,22.244a1.5,1.5,0,0,0,2.168,1.579l6.107-3.22,6.107,3.22a1.5,1.5,0,0,0,2.168-1.579l-1.168-6.819L25.988,10.6a1.5,1.5,0,0,0-.827-2.559l-6.827-1L15.282.834a1.5,1.5,0,0,0-2.682,0Z" transform="translate(-1.441 0.001)" fill="none" stroke="#ccc" stroke-width="1"/>
  </g>
</svg>
