<svg id="Layer_1" data-name="Layer 1" xmlns="http://www.w3.org/2000/svg" viewBox="0 0 1024 1024"><defs><style>.cls-1{fill:#fff;}.cls-2{fill:#cc0200;}</style></defs><rect class="cls-1" width="1024" height="1024"/><path class="cls-2" d="M727.3,430.51l-28.37-44.45-117.11-29c-12.88-2.86-25.65-6.23-39.24-9.59a1.87,1.87,0,0,1-1.31-2.48c11.32-29.94,12.6-56.86-10.72-82.39a1.93,1.93,0,0,0-2.91.11c-23,28.41-49.82,74.61-49.82,74.61s-14.36,5.26-23,8.34c-60,21.3-118,48-171.88,80.92l23.42,20.86c-20.87,9.47-41.06,21-67.85,41-21.89,16.34-38.89,31.69-51.47,45.89l72.74,71.35,22.52,21.09c7.4-7.44,19.66-20.46,35.06-32.47,29.32-22.87,44.14-31.68,66.3-41.86l25.88,22.92c-20.25,9.72-39.29,22.12-57.34,36-12.48,9.61-30,22.49-43.49,37.86L381.07,719l46.61,43C443,746.54,461,728.78,485.24,710.32c27.66-21,52.07-36.37,74.24-45.37l27.72,22.5C662.58,639.77,748.64,609,835.67,582.22a1.87,1.87,0,0,0,1.31-2.08c-5.11-32.64-9.76-63.84-14.93-95-3.23-19.47-7.89-39.47-7.89-39.47ZM686,447.71c-10.88,1.54-17.32,3-24.59,2.81-3.46-.1-7.71-2.34-10.34-7.23-1.45-2.69.15-9.36,2.53-11.16A11.72,11.72,0,0,1,665.71,431c6.5,3.09,12.37,7.48,21.08,13.34A1.86,1.86,0,0,1,686,447.71Z"/></svg>