<svg id="Layer_1" data-name="Layer 1" xmlns="http://www.w3.org/2000/svg" viewBox="0 0 737.06 570.18"><defs><style>.cls-1{fill:#7d5125;}</style></defs><path class="cls-1" d="M770,399.43l-32.17-50.69L605,315.68c-14.6-3.26-29.08-7.09-44.5-10.93a2.14,2.14,0,0,1-1.48-2.83c12.84-34.14,14.29-64.84-12.16-94a2.16,2.16,0,0,0-3.29.13c-26,32.38-56.5,85.07-56.5,85.07s-16.27,6-26.12,9.52C392.93,327,327.11,357.4,266,395l26.56,23.79c-23.67,10.8-46.57,23.95-76.94,46.76-24.83,18.63-44.11,36.13-58.37,52.32l82.48,81.37,25.54,24c8.39-8.48,22.29-23.33,39.76-37,33.24-26.08,50-36.12,75.17-47.73l29.35,26.14c-23,11.08-44.55,25.22-65,41.08-14.14,11-34,25.64-49.32,43.17l82.1,79.52,52.86,49.05c17.39-17.63,37.75-37.88,65.27-58.94,31.36-24,59-41.47,84.18-51.73l31.43,25.65c85.48-54.36,183.07-89.42,281.76-120a2.16,2.16,0,0,0,1.48-2.38c-5.79-37.22-11.07-72.8-16.93-108.28-3.67-22.21-8.95-45-8.95-45Zm-46.83,19.62c-12.34,1.76-20.64,3.42-28.88,3.18-3.92-.11-9.29-4.86-11-8.81-1.39-3.19.39-10.16,3.15-12.14,3.32-2.39,10-3.09,13.73-1.32,7.37,3.53,14,8.53,23.9,15.22A2.13,2.13,0,0,1,723.12,419.05Z" transform="translate(-157.28 -207.27)"/></svg>